<svg xmlns="http://www.w3.org/2000/svg" viewBox="0 0 366 148"><title>Asset 3</title><g id="Layer_2" data-name="Layer 2"><g id="SetUp"><path d="M25.18,102.11A16.54,16.54,0,0,1,17.83,97,1.36,1.36,0,0,1,18,95.15h0a1.32,1.32,0,0,1,1.9.11,16.6,16.6,0,0,0,5.76,4.23,22.83,22.83,0,0,0,9.75,2,16.82,16.82,0,0,0,10.06-3c2.79-2,4.5-5.1,5.09-9.3A10.47,10.47,0,0,0,49,82.31a12.75,12.75,0,0,0-4.58-4.12q-2.7-1.43-8.25-3.83A33.8,33.8,0,0,1,26.75,69a9.86,9.86,0,0,1-3.23-7.8c0-4.89,1.73-8.75,5.18-11.55a17.36,17.36,0,0,1,12.07-3.9,25.55,25.55,0,0,1,8,2.1,16.82,16.82,0,0,1,6.09,4.41,1.35,1.35,0,0,1,0,1.85h0a1.34,1.34,0,0,1-2-.11,13.5,13.5,0,0,0-5.28-3.82,19.57,19.57,0,0,0-7.65-1.73,14.31,14.31,0,0,0-9,3.15,10.59,10.59,0,0,0-4.05,8.85,8.38,8.38,0,0,0,2.86,6.68A33.09,33.09,0,0,0,37.93,72c.59.3,2.52,1.15,5.77,2.55a18.71,18.71,0,0,1,7.35,5.18,11,11,0,0,1,2.47,7.12q0,7.65-4.72,12.45t-13.43,4.8A29.11,29.11,0,0,1,25.18,102.11Z"/><path d="M109.1,99.79a24.44,24.44,0,0,0,7-3.72,1.33,1.33,0,0,1,1.88.29h0a1.34,1.34,0,0,1-.3,1.9,33.93,33.93,0,0,1-8,3.93,31,31,0,0,1-10.13,1.72,28.14,28.14,0,0,1-14.32-3.67,26.71,26.71,0,0,1-10-9.9,27.23,27.23,0,0,1-3.6-13.88,30.43,30.43,0,0,1,4.2-15.6A31.35,31.35,0,0,1,87.2,49.46a30,30,0,0,1,15.52-4.2q10.05,0,16.58,5.63a27.67,27.67,0,0,1,8,12.11,3.07,3.07,0,0,1-2,3.9L75.57,83.21A25,25,0,0,0,84.2,96.26a24.06,24.06,0,0,0,15.52,5.1A28.63,28.63,0,0,0,109.1,99.79Zm-20.25-48A28.78,28.78,0,0,0,78.5,62.06a27.15,27.15,0,0,0-3.83,14.1q0,1.35.3,4.35l49.65-16.05a26.53,26.53,0,0,0-8.17-11.85A20.68,20.68,0,0,0,102.87,48,27.25,27.25,0,0,0,88.85,51.79Z"/><path d="M253.62,49.09A13,13,0,0,1,258,59.36a17.84,17.84,0,0,1-.15,2.7L253,101.7a1.49,1.49,0,0,1-1.48,1.31h0a1.49,1.49,0,0,1-1.48-1.66l4.75-39.14A12.43,12.43,0,0,0,255,60a11,11,0,0,0-3.75-8.7c-2.5-2.19-5.9-3.3-10.2-3.3a26.8,26.8,0,0,0-12.15,2.85,26,26,0,0,0-9.45,7.95,23.83,23.83,0,0,0-4.5,11.55L211,101.77a1.41,1.41,0,0,1-1.4,1.24h0a1.42,1.42,0,0,1-1.41-1.58l6.59-54.11a1.15,1.15,0,0,1,1.14-1h0a1.15,1.15,0,0,1,1.14,1.23l-.81,11.67A28.39,28.39,0,0,1,226.85,49a29.41,29.41,0,0,1,14.62-3.75Q249.27,45.26,253.62,49.09Z"/><path d="M348.45,13.43,334.81,101.8a1.43,1.43,0,0,1-1.42,1.21h0a1.44,1.44,0,0,1-1.43-1.6L333.57,88a32,32,0,0,1-12.3,11.78,29.46,29.46,0,0,1-16.5,3.67,26.7,26.7,0,0,1-22.65-13.8,26.94,26.94,0,0,1-3.3-13.2,31,31,0,0,1,4.28-16.27,30.28,30.28,0,0,1,11.4-11.1,31,31,0,0,1,15.37-4,27.62,27.62,0,0,1,16.73,5.33,26.94,26.94,0,0,1,10,13.57l8.93-51.07A1.5,1.5,0,0,1,347,11.7h0A1.5,1.5,0,0,1,348.45,13.43ZM335.52,72a25.74,25.74,0,0,0-3.74-12.26,25.25,25.25,0,0,0-5.34-6.27,23.89,23.89,0,0,0-14.62-5.77,29,29,0,0,0-14.85,3,26.82,26.82,0,0,0-11,10.13,28.54,28.54,0,0,0-4.13,15.37,24.75,24.75,0,0,0,3.23,12.45A24.21,24.21,0,0,0,294,97.69a24.55,24.55,0,0,0,12.75,3.37,29,29,0,0,0,23.33-11.7,26.31,26.31,0,0,0,5-12.45Z"/><path d="M183.63,121.52a1.48,1.48,0,0,1-.34,2.09,1.51,1.51,0,0,1-1.12.26,1.49,1.49,0,0,1-1-.6L148.9,79c-3.14,18.72-6.59,37.3-9.71,56a1.5,1.5,0,0,1-3-.48c3.31-20.38,6.14-40.39,9.5-60.77,3.3-20.08,7.13-40.52,10.48-60.6a1.5,1.5,0,1,1,3,.48c-3,18.68-5.74,37.52-8.76,56.19l44.78-31.57a1.5,1.5,0,0,1,2.09.34,1.52,1.52,0,0,1,.27,1.12,1.54,1.54,0,0,1-.61,1l-46.4,33.87Z"/><path d="M0,0V148H366V0ZM363,145H3V3H363Z"/></g></g></svg>