<svg height="512pt" viewBox="-63 0 512 512.00026" width="512pt" xmlns="http://www.w3.org/2000/svg"><path d="m386.640625 4.683594c-1.582031-3.855469-5.996094-5.699219-9.851563-4.117188-44.726562 18.363282-80.808593 49.921875-104.4375 89.832032h-260.015624c-10.308594 0-16.164063 12.070312-9.5 20.171874 164.617187 199.570313 153.222656 187.136719 161.671874 192.632813v87.15625c0 4.167969 3.382813 7.546875 7.550782 7.546875 4.164062 0 7.546875-3.378906 7.546875-7.546875v-80.726563c6.378906 1.488282 13.128906 1.617188 19.628906.363282v137.554687c-11.289063-3.957031-8.1875-4.011719-19.628906 0v-26.996093c0-4.167969-3.382813-7.546876-7.546875-7.546876-4.167969 0-7.550782 3.378907-7.550782 7.546876v32.28125l-109.746093 38.460937c-11.257813 3.953125-8.484375 20.703125 3.523437 20.703125h262.269532c12.027343 0 14.757812-16.757812 3.519531-20.703125l-59.777344-20.949219c-3.9375-1.378906-8.242187.695313-9.621094 4.621094-1.378906 3.9375.691407 8.246094 4.628907 9.625l35.117187 12.308594h-210.015625c.003906 0 105.011719-36.789063 105.011719-36.789063 19.40625 6.808594 1.128906.394531 41.382812 14.492188 3.933594 1.378906 8.242188-.691407 9.621094-4.628907 1.378906-3.925781-.695313-8.234374-4.628906-9.613281l-21.460938-7.519531v-148.585938c9.050781-5.375 10.914063-8.859374 34.445313-37.695312 2.636718-3.230469 2.152344-7.980469-1.078125-10.617188-3.230469-2.636718-7.980469-2.15625-10.621094 1.074219-23.898437 29.28125-21.878906 26.828125-22.746094 27.832031-11.640625 13.285157-34.421875 16.652344-49.824219-2.011718l-88.28125-107.027344h131.785157c3.417969 19.417969 20.398437 34.222656 40.78125 34.222656 20.382812 0 37.359375-14.804687 40.777343-34.222656h13.769532l-47.175782 57.808594c-2.625 3.230468-2.152343 7.988281 1.078126 10.617187 3.230468 2.636719 7.992187 2.152344 10.628906-1.066406l108.246094-132.652344c6.585937-8.0625.769531-20.121093-9.542969-20.121093h-76.433594c21.53125-32.914063 53.078125-59.726563 92.382813-75.863282 3.859374-1.582031 5.699218-5.992187 4.117187-9.851562zm-178.5 156.03125h-144.367187l-45.546876-55.21875h245.996094c-4.933594 10.144531-7.738281 18.066406-9.054687 22.199218-22.238281-3.453124-42.84375 11.457032-47.027344 33.019532zm65.753906 0h-50.207031c7.722656-24.472656 42.484375-24.472656 50.207031 0zm-50.414062 15.097656h50.621093c-7.230468 25.398438-43.382812 25.421875-50.621093 0zm137.242187-70.316406-45.0625 55.21875h-26.21875c-2.320312-11.957032-9.800781-22.085938-20.023437-27.984375 1.28125-4.066407 4.828125-14.238281 11.769531-27.234375zm0 0"/></svg>